<svg width="300" height="300" viewBox="0 0 300 300" fill="none" xmlns="http://www.w3.org/2000/svg">
<g clip-path="url(#clip0_655_81)">
<path fill-rule="evenodd" clip-rule="evenodd" d="M201.574 149.704C195.114 151.488 189.866 155.909 186.946 162.026C185.335 165.401 185.17 166.234 185.17 171.017C185.17 175.992 185.287 176.522 187.247 180.458C194.771 195.568 214.719 197.406 225.068 183.944C231.281 175.862 230.526 163.697 223.33 155.951C218.042 150.257 208.987 147.657 201.574 149.704ZM247.173 149.704C240.712 151.488 235.464 155.909 232.544 162.026C230.933 165.401 230.769 166.234 230.769 171.017C230.769 175.992 230.885 176.522 232.845 180.458C240.369 195.567 260.33 197.406 270.663 183.944C278.637 173.555 274.921 157.568 263.144 151.593C258.04 149.003 252.209 148.314 247.173 149.704ZM167.098 171.264V193.062H169.322H171.546V185.888V178.714H177.107H182.668V176.507V174.299H177.107H171.546V164.107V153.915L178.358 153.76L185.17 153.605L185.343 151.536L185.516 149.466H176.306H167.098V171.264ZM277.201 171.264V193.062L283.457 193.05C288.32 193.041 290.213 192.812 291.96 192.025C294.485 190.887 297.011 188.199 297.637 185.984C297.866 185.173 298.054 178.3 298.054 170.712C298.054 157.254 298.022 156.861 296.751 154.661C296.035 153.421 294.421 151.745 293.165 150.936C291.005 149.547 290.506 149.466 284.041 149.466H277.201V171.264ZM215.642 153.527C219.653 155.474 223.932 160.094 225.446 164.113C226.997 168.225 226.986 173.761 225.418 178.003C223.808 182.361 218.656 187.455 214.177 189.118C209.943 190.69 204.372 190.707 200.207 189.16C196.135 187.648 191.505 183.413 189.504 179.371C188.134 176.602 187.951 175.611 187.951 170.988C187.952 164.925 188.929 162.181 192.473 158.288C196.898 153.427 201.312 151.601 208.029 151.851C211.582 151.984 213.197 152.339 215.642 153.527ZM261.24 153.527C265.301 155.498 269.526 160.088 271.093 164.23C272.76 168.639 272.492 174.972 270.456 179.266C268.667 183.041 265.083 186.583 261.079 188.534C256.805 190.618 250.464 190.899 245.923 189.208C241.727 187.645 237.128 183.464 235.103 179.371C233.732 176.602 233.549 175.611 233.549 170.988C233.55 164.925 234.527 162.181 238.071 158.288C242.496 153.427 246.91 151.601 253.628 151.851C257.18 151.984 258.795 152.339 261.24 153.527ZM290.899 154.859C293.175 156.689 293.327 157.727 293.327 171.495V184.767L291.717 186.556C290.214 188.225 289.824 188.358 285.878 188.557L281.649 188.768V171.324V153.881L285.681 153.893C288.659 153.903 290.023 154.155 290.899 154.859ZM215.3 157.957C215.137 158.377 215.758 159.433 216.68 160.302C218.63 162.141 220.749 165.627 221.269 167.852C221.52 168.922 221.928 169.35 222.58 169.225C224.137 168.928 224.018 167.223 222.182 163.521C219.804 158.728 216.145 155.77 215.3 157.957ZM260.898 157.957C260.735 158.377 261.357 159.433 262.279 160.302C264.228 162.141 266.347 165.627 266.867 167.852C267.118 168.922 267.526 169.35 268.178 169.225C269.736 168.928 269.617 167.223 267.78 163.521C265.403 158.728 261.744 155.77 260.898 157.957ZM202.643 163.414C198.347 166.287 197.01 171.179 199.388 175.328C201.029 178.192 202.992 179.431 206.325 179.705C209.83 179.993 212.725 178.79 214.514 176.301C216.213 173.937 216.285 168.108 214.642 165.921C211.86 162.217 206.2 161.035 202.643 163.414ZM248.242 163.414C243.945 166.287 242.608 171.179 244.986 175.328C246.627 178.192 248.59 179.431 251.923 179.705C255.428 179.993 258.323 178.79 260.113 176.301C261.811 173.937 261.883 168.108 260.241 165.921C257.458 162.217 251.799 161.035 248.242 163.414ZM211.028 165.988C211.792 166.517 212.771 167.941 213.203 169.153C213.915 171.153 213.89 171.557 212.925 173.518C212.214 174.962 211.139 176.029 209.684 176.734C207.708 177.692 207.301 177.717 205.286 177.01C202.434 176.009 200.765 173.787 200.765 170.988C200.765 165.761 206.593 162.921 211.028 165.988ZM256.626 165.988C257.391 166.517 258.369 167.941 258.801 169.153C259.514 171.153 259.488 171.557 258.523 173.518C257.813 174.962 256.737 176.029 255.283 176.734C253.306 177.692 252.899 177.717 250.884 177.01C248.032 176.009 246.364 173.787 246.364 170.988C246.364 165.761 252.191 162.921 256.626 165.988ZM206.023 170.988C206.023 171.724 206.394 172.092 207.135 172.092C207.877 172.092 208.247 171.724 208.247 170.988C208.247 170.253 207.877 169.885 207.135 169.885C206.394 169.885 206.023 170.253 206.023 170.988ZM251.621 170.988C251.621 171.724 251.992 172.092 252.734 172.092C253.475 172.092 253.846 171.724 253.846 170.988C253.846 170.253 253.475 169.885 252.734 169.885C251.992 169.885 251.621 170.253 251.621 170.988ZM190.646 173.493C190.466 173.959 190.737 175.43 191.249 176.762C193.178 181.773 197.332 185.904 198.889 184.359C199.346 183.906 198.839 183.003 196.967 180.937C195.502 179.32 194.035 176.967 193.506 175.387C192.592 172.654 191.3 171.8 190.646 173.493ZM236.244 173.493C236.064 173.959 236.335 175.43 236.848 176.762C238.776 181.773 242.93 185.904 244.488 184.359C244.944 183.906 244.437 183.003 242.565 180.937C241.1 179.32 239.633 176.967 239.104 175.387C238.19 172.654 236.899 171.8 236.244 173.493ZM164.17 200.659C164.058 200.882 163.983 201.437 164.003 201.892C164.035 202.622 172.045 202.736 232.02 202.86L300 203V201.614V200.228L232.186 200.241C194.889 200.248 164.281 200.436 164.17 200.659Z" fill="black"/>
<path fill-rule="evenodd" clip-rule="evenodd" d="M9.54509 149.757C8.47513 150.231 7.12428 151.042 6.5425 151.56C3.6504 154.136 2.5205 159.667 4.12012 163.419C4.53656 164.396 8.06758 168.629 11.9669 172.827C18.8378 180.223 19.39 181.105 19.1053 184.235C18.7219 188.448 12.6994 190.203 9.48504 187.037C8.20994 185.782 7.84675 184.925 7.84675 183.174V180.924H5.32457H2.8024L2.81473 182.994C2.85284 189.391 9.04508 194.263 15.6324 193.077C21.8314 191.96 25.562 185.576 23.5398 179.543C23.0959 178.218 20.3501 174.809 15.8606 170.008C12.0168 165.899 8.6219 161.892 8.31644 161.106C7.55418 159.146 8.60013 155.902 10.4581 154.463C13.8502 151.835 18.3631 154.276 18.9073 159.032L19.2089 161.664L21.5147 161.498L23.8205 161.332L23.6429 158.572C23.4304 155.266 22.2972 153.191 19.4825 150.95C16.9244 148.914 12.6165 148.397 9.54509 149.757ZM26.9032 151.674V153.881H30.5463H34.1895V173.473V193.066H36.4314H38.6734V173.499V153.931L42.4566 153.769L46.2399 153.605L46.4137 151.536L46.588 149.466H36.7454H26.9032V151.674ZM49.883 171.266V193.066H52.125H54.3669V186.719V180.372H58.3464C62.1246 180.372 62.4222 180.467 64.2315 182.249C66.085 184.074 66.1371 184.248 66.1371 188.595V193.066H68.7372H71.3367L71.0553 188.203C70.7689 183.261 70.2359 181.596 68.2496 179.447L67.1392 178.245L68.5819 176.382C70.6002 173.776 71.3603 169.612 71.0722 162.731C70.7847 155.851 69.6838 153.305 65.9734 150.936C63.7971 149.546 63.2932 149.466 56.7771 149.466H49.883V171.266ZM76.2258 171.266V193.066H84.9133H93.6008V190.858V188.651H87.1552H80.7097V184.511V180.372H85.754H90.7984V178.165V175.957H85.754H80.7097V164.937V153.918L87.0151 153.761L93.3205 153.605L93.4943 151.536L93.6686 149.466H84.9469H76.2258V171.266ZM98.6452 171.266V193.066H107.333H116.02V190.858V188.651H109.575H103.129V184.511V180.372H108.173H113.218V178.165V175.957H108.173H103.129V164.937V153.918L109.434 153.761L115.74 153.605L115.914 151.536L116.088 149.466H107.366H98.6452V171.266ZM118.823 151.674V153.881H122.466H126.109V173.473V193.066H128.351H130.593V173.499V153.931L134.376 153.769L138.159 153.605L138.333 151.536L138.507 149.466H128.665H118.823V151.674ZM63.6895 154.859C65.7706 156.519 66.1371 158.001 66.1348 164.745C66.1331 170.23 65.96 171.546 65.043 173.026C63.8077 175.021 61.2676 175.949 57.0293 175.954L54.3669 175.957V164.919V153.881L58.4304 153.893C61.4318 153.903 62.8068 154.155 63.6895 154.859ZM0 201.62V203H69.5H139V201.62V200.24H69.5H0V201.62Z" fill="black"/>
<path fill-rule="evenodd" clip-rule="evenodd" d="M96.588 25.1753C61.4703 31.604 32.1546 53.3771 16.4449 84.6986C10.7882 95.9764 7.15299 108.575 5.59023 122.313C4.51809 131.742 4.88179 136.289 6.88489 138.512C8.24422 140.02 11.1743 140.052 148.562 140.052H288.85L290.431 137.449C292.344 134.298 292.432 130.321 290.818 120.027C288.314 104.06 285.75 95.9579 279.061 82.8819C265.397 56.1709 239.042 34.9017 210.359 27.4389C197.813 24.1741 193.409 23.9354 147.229 24.0107C113.211 24.066 101.133 24.3439 96.588 25.1753ZM204.502 43.3232C221.537 47.9857 236.002 56.3383 247.741 68.2881C255.951 76.6463 260.946 83.791 266.071 94.5089C269.547 101.778 272.996 113.242 274.05 121.029L274.566 124.833H148.475H22.3848L22.3976 123.031C22.4207 119.628 25.4456 106.794 27.5428 101.198C37.386 74.9354 59.76 53.5541 86.141 45.1998C99.6489 40.9226 101.26 40.8177 150.819 41.0083L196.689 41.1853L204.502 43.3232ZM109.426 59.6014C104.819 63.4934 105.641 70.4227 111.043 73.2277C114.44 74.9907 118.283 74.1496 120.857 71.0787C127.301 63.3893 117.084 53.1311 109.426 59.6014ZM159.574 59.8514C156.6 62.8374 156.002 65.4486 157.479 68.9985C160.967 77.38 173.156 74.8857 173.156 65.7906C173.156 58.3015 164.769 54.6346 159.574 59.8514ZM75.6492 75.9462C70.8836 79.7108 71.1166 86.5897 76.1143 89.6494C81.9051 93.1946 88.5397 89.6174 88.5788 82.9292C88.6011 79.0468 87.5553 77.1037 84.6237 75.581C81.4351 73.9254 78.0328 74.0639 75.6492 75.9462ZM193.985 76.422C189.378 80.314 190.201 87.2433 195.602 90.0483C198.999 91.8112 202.842 90.9702 205.416 87.8993C211.86 80.2099 201.643 69.9517 193.985 76.422ZM144.437 92.2245C141.616 93.6511 139.26 98.3304 139.958 101.121C140.655 103.912 143.664 106.986 146.363 107.667C151.554 108.975 156.415 105.104 156.386 99.6857C156.351 93.1777 150.176 89.3218 144.437 92.2245ZM8.62398 210.602C5.73859 212.29 4.59786 216.061 5.15468 222.072C6.69749 238.74 14.5471 253.538 27.227 263.681C34.2989 269.339 41.11 272.608 50.9396 275.066L58.6815 277L148.027 276.993C250.061 276.983 244.71 277.316 259.311 270.092C265.682 266.94 268.043 265.183 274.136 259.065C280.229 252.947 281.979 250.577 285.118 244.179C288.919 236.434 291.966 225.252 292 218.927C292.017 215.776 290.547 212.727 288.066 210.764C286.448 209.484 10.809 209.324 8.62398 210.602ZM133.334 242.219C145.364 251.273 155.306 258.964 155.428 259.308C155.551 259.652 133.473 259.89 106.368 259.836C63.5588 259.75 56.542 259.568 52.9459 258.451C42.9144 255.335 34.6706 249.454 29.2413 241.537C26.1748 237.067 22.0904 227.121 22.9616 226.245C23.2296 225.977 43.251 225.757 67.455 225.757H111.462L133.334 242.219ZM223.349 226.357C223.314 226.688 213.971 233.903 202.586 242.391L181.887 257.823L161.168 242.114C149.773 233.475 140.449 226.26 140.449 226.081C140.449 225.902 159.116 225.757 181.931 225.757C204.746 225.757 223.384 226.027 223.349 226.357ZM273.375 228.36C273.103 229.792 271.584 233.553 270 236.72C266.733 243.25 258.781 251.595 253.006 254.553C244.993 258.657 243.718 258.879 225.605 259.349C216.062 259.596 208.344 259.578 208.454 259.309C208.565 259.04 218.527 251.391 230.592 242.312L252.53 225.804L263.199 225.781L273.869 225.757L273.375 228.36Z" fill="black"/>
<line x1="-1.74846e-07" y1="202" x2="301" y2="202" stroke="black" stroke-width="4"/>
</g>
<defs>
<clipPath id="clip0_655_81">
<rect width="300" height="300" fill="white"/>
</clipPath>
</defs>
</svg>
