<svg width="720" height="76" viewBox="0 0 720 76" fill="none" xmlns="http://www.w3.org/2000/svg">
<path fill-rule="evenodd" clip-rule="evenodd" d="M6.63952e-06 -1.95293e-06L0 75.9999C36.182 75.9999 63.091 68.6343 90 61.2687C116.909 53.903 143.818 46.5374 180 46.5374C216.182 46.5374 243.091 53.9031 270 61.2687C296.909 68.6343 323.818 76 360 76C396.182 76 423.091 68.6343 450 61.2687C476.909 53.9031 503.818 46.5374 540 46.5375C576.182 46.5375 603.091 53.9031 630 61.2687C656.909 68.6344 683.818 76 720 76L720 6.10352e-05L6.63952e-06 -1.95293e-06Z" fill="#FF775D"/>
</svg>
