<svg width="20" height="20" viewBox="0 0 20 20" fill="none" xmlns="http://www.w3.org/2000/svg">
<path d="M9.99974 3.7334C9.37014 3.7334 8.75467 3.9201 8.23118 4.26989C7.70768 4.61968 7.29966 5.11684 7.05872 5.69852C6.81779 6.2802 6.75474 6.92026 6.87757 7.53777C7.0004 8.15528 7.30359 8.72249 7.74878 9.16769C8.19398 9.61289 8.7612 9.91607 9.3787 10.0389C9.99621 10.1617 10.6363 10.0987 11.218 9.85775C11.7996 9.61681 12.2968 9.20879 12.6466 8.6853C12.9964 8.1618 13.1831 7.54634 13.1831 6.91673C13.1831 6.07246 12.8477 5.26277 12.2507 4.66578C11.6537 4.06878 10.844 3.7334 9.99974 3.7334ZM9.99974 8.98895C9.58989 8.98895 9.18925 8.86742 8.84848 8.63972C8.5077 8.41202 8.2421 8.08839 8.08526 7.70974C7.92842 7.33109 7.88738 6.91443 7.96734 6.51246C8.04729 6.11049 8.24465 5.74125 8.53446 5.45145C8.82426 5.16164 9.1935 4.96428 9.59547 4.88433C9.99744 4.80437 10.4141 4.84541 10.7927 5.00225C11.1714 5.15909 11.495 5.42469 11.7227 5.76547C11.9504 6.10624 12.072 6.50688 12.072 6.91673C12.0705 7.46536 11.8515 7.99101 11.4631 8.37842C11.0746 8.76584 10.5484 8.9834 9.99974 8.9834V8.98895Z" fill="current"/>
<path d="M9.99952 1.11108C8.26908 1.11253 6.60951 1.79869 5.3833 3.01969C4.15709 4.2407 3.46388 5.89733 3.45508 7.62775C3.45508 10.2222 4.91063 12.3944 5.9773 13.9778L6.17174 14.2666C7.23301 15.8048 8.37151 17.2881 9.58286 18.7111L10.0051 19.2055L10.4273 18.7111C11.6385 17.288 12.777 15.8046 13.8384 14.2666L14.0329 13.9722C15.094 12.3889 16.5495 10.2222 16.5495 7.62775C16.5407 5.89637 15.8467 4.2389 14.6193 3.01773C13.3919 1.79657 11.7309 1.11106 9.99952 1.11108ZM13.1051 13.3333L12.9051 13.6278C11.9495 15.0611 10.6829 16.6666 9.99952 17.4611C9.34397 16.6666 8.04952 15.0611 7.09397 13.6278L6.89952 13.3333C5.91619 11.8666 4.56619 9.86108 4.56619 7.60553C4.56619 6.89201 4.70673 6.18548 4.97978 5.52628C5.25283 4.86708 5.65304 4.26811 6.15758 3.76358C6.66211 3.25905 7.26107 2.85883 7.92028 2.58578C8.57948 2.31273 9.28601 2.1722 9.99952 2.1722C10.713 2.1722 11.4196 2.31273 12.0788 2.58578C12.738 2.85883 13.3369 3.25905 13.8415 3.76358C14.346 4.26811 14.7462 4.86708 15.0193 5.52628C15.2923 6.18548 15.4329 6.89201 15.4329 7.60553C15.4329 9.88331 14.0884 11.8889 13.1051 13.3333Z" fill="current"/>
</svg>
