<svg width="34" height="40" viewBox="0 0 34 40" fill="none" xmlns="http://www.w3.org/2000/svg">
<path d="M33.178 9.99181C33.1676 9.99181 33.1574 9.99196 33.1471 9.99235C32.7052 10.0016 32.3501 10.3417 32.3501 10.7598C32.3501 10.8053 32.3543 10.8499 32.3623 10.8931V35.7472C32.3623 36.8621 31.3989 37.7693 30.2147 37.7693H4.2682V35.451H4.57341C5.8424 35.451 6.90519 34.4532 6.90519 33.2569C6.90519 32.0467 5.85912 31.0621 4.57325 31.0621H4.2682V26.4656H4.57341C5.8406 26.4656 6.90519 25.4671 6.90519 24.2714C6.90519 23.0611 5.85912 22.0766 4.57325 22.0766H4.2682V17.4806H4.57325C5.19608 17.4806 5.7818 17.2521 6.22249 16.8374C6.66269 16.4232 6.90519 15.8721 6.90519 15.2858C6.90519 14.7186 6.67525 14.2011 6.29851 13.8112C5.87168 13.3693 5.25644 13.0915 4.57341 13.0915H4.2682V8.49501H4.57325C5.84403 8.49501 6.90519 7.49635 6.90519 6.30025C6.90519 4.89089 5.64077 4.10618 4.2682 4.10618V1.53534H30.2147C31.399 1.53534 32.3623 2.44241 32.3623 3.55737V3.87096C32.3543 3.91418 32.3501 3.95886 32.3501 4.00431C32.3501 4.42269 32.7057 4.76292 33.1481 4.77182C33.1579 4.77205 33.1698 4.77228 33.178 4.77228C33.6284 4.77228 33.9936 4.42852 33.9936 4.00462V3.55737C33.9936 1.59583 32.2985 0 30.2147 0H3.45255C3.00215 0 2.6369 0.343762 2.6369 0.767668V4.10618H2.33144C1.04582 4.10618 0 5.09048 0 6.30048C0 7.51048 1.04582 8.49486 2.33144 8.49486H2.6369V13.0915H2.33144C1.04582 13.0915 0 14.0759 0 15.2859C0 16.4959 1.04582 17.4803 2.33144 17.4803H2.6369V22.0769H2.33144C1.04582 22.0769 0 23.0612 0 24.2712C0 25.4812 1.04582 26.4656 2.33144 26.4656H2.6369V31.0622H2.33144C1.04582 31.0622 0 32.0466 0 33.2566C0 34.4666 1.04582 35.451 2.33144 35.451H2.6369V38.5369C2.6369 38.9608 3.00215 39.3046 3.45255 39.3046H30.2147C32.2985 39.3046 33.9936 37.7088 33.9936 35.7472V10.7595C33.9936 10.3356 33.6285 9.99181 33.178 9.99181ZM1.63129 6.30048C1.63129 5.93714 1.9454 5.64151 2.33144 5.64151H3.451C3.45149 5.64151 3.45206 5.64159 3.45255 5.64159H4.57325C4.95196 5.64159 5.27357 5.94413 5.27357 6.30048C5.27357 6.66382 4.95946 6.95952 4.57341 6.95952H2.33144C1.94532 6.95952 1.63129 6.66389 1.63129 6.30048ZM1.63129 15.2859C1.63129 14.9225 1.9454 14.6268 2.33144 14.6268H3.44627C3.44839 14.6268 3.45043 14.6271 3.45255 14.6271H4.57325C4.7664 14.6271 4.94151 14.701 5.06843 14.8202C5.1951 14.9395 5.27357 15.1042 5.27357 15.2859C5.27357 15.6492 4.95946 15.9449 4.57341 15.9449H2.33144C1.94532 15.9449 1.63129 15.6492 1.63129 15.2859ZM1.63129 24.2712C1.63129 23.9079 1.9454 23.6122 2.33144 23.6122H4.57341C4.95946 23.6122 5.27357 23.9079 5.27357 24.2712C5.27357 24.6288 4.95024 24.93 4.57325 24.93H3.45255C3.45092 24.93 3.44945 24.9302 3.44782 24.9302H2.33144C1.94532 24.9302 1.63129 24.6345 1.63129 24.2712ZM1.63129 33.2566C1.63129 32.8933 1.9454 32.5976 2.33144 32.5976H4.57341C4.95946 32.5976 5.27357 32.8933 5.27357 33.2566C5.27357 33.6139 4.95098 33.9156 4.57325 33.9156H3.45255C3.45198 33.9156 3.45149 33.9156 3.451 33.9156H2.33144C1.94532 33.9156 1.63129 33.6199 1.63129 33.2566Z" fill="white"/>
<path d="M18.8681 12.8708C18.4177 12.8708 18.0525 13.2146 18.0525 13.6385V14.0601C15.0089 14.3078 13.4623 15.9286 12.6923 17.3068C12.3118 17.988 12.0876 18.6671 11.9553 19.2247L11.6443 19.0312C11.2684 18.7975 10.7624 18.8947 10.5141 19.2484C10.2658 19.6021 10.3691 20.0784 10.7449 20.3121L12.1314 21.1744C12.2632 21.2564 12.4231 21.3016 12.5811 21.3016H25.1553C25.3162 21.3016 25.4777 21.2549 25.6112 21.1706L26.9707 20.3082C27.3443 20.0713 27.443 19.5942 27.1913 19.2426C26.9394 18.8911 26.4323 18.7982 26.059 19.035L25.7782 19.2131C25.6455 18.6578 25.4219 17.9833 25.0439 17.3068C24.2739 15.9286 22.7274 14.3078 19.6838 14.0601V13.6385C19.6838 13.2146 19.3185 12.8708 18.8681 12.8708ZM24.2401 19.7663H13.5025C13.5997 19.2884 13.7849 18.6503 14.1363 18.0214C15.0481 16.3894 16.64 15.5619 18.8682 15.5619C22.896 15.5619 23.9598 18.3584 24.2401 19.7663Z" fill="white"/>
<path d="M29.1703 8.90276V5.02719C29.1703 4.60328 28.8051 4.25952 28.3547 4.25952H9.86838C9.41798 4.25952 9.05273 4.60328 9.05273 5.02719V8.90268C9.05273 9.32659 9.41798 9.67035 9.86838 9.67035H28.3546C28.8051 9.67043 29.1703 9.32667 29.1703 8.90276ZM27.539 8.13509H10.684V5.79486H27.539V8.13509H27.539Z" fill="white"/>
<path d="M28.7116 24.3302C28.7116 23.9063 28.3463 23.5625 27.8959 23.5625H9.81369C9.36329 23.5625 8.99805 23.9063 8.99805 24.3302C8.99805 24.7541 9.36329 25.0978 9.81369 25.0978H27.8959C28.3464 25.0978 28.7116 24.7541 28.7116 24.3302Z" fill="white"/>
<path d="M33.9308 7.13083C33.7473 6.71652 33.3306 6.57918 32.9752 6.67245C32.5466 6.78492 32.2039 7.21842 32.4243 7.71817C32.6135 8.1473 33.0615 8.28801 33.4246 8.17739C33.8354 8.05218 34.1425 7.61722 33.9308 7.13083Z" fill="white"/>
<path d="M19.9941 29.3682C19.7386 29.4432 19.5645 29.6659 19.5645 29.9178V33.8722C19.5645 34.1903 19.8383 34.448 20.1762 34.448C20.5141 34.448 20.7879 34.1903 20.7879 33.8722V31.7648L22.5138 34.1171C22.6902 34.3568 22.9857 34.4587 23.2667 34.3758C23.5528 34.2918 23.7375 34.0417 23.7375 33.7332L23.6983 29.9049C23.695 29.587 23.4181 29.334 23.0807 29.3347C22.7429 29.3378 22.4716 29.5981 22.4748 29.916L22.4969 32.0676L20.6795 29.5907C20.5275 29.3834 20.25 29.2934 19.9941 29.3682Z" fill="white"/>
<path d="M13.2296 29.3358C12.9099 29.3183 12.6165 29.5074 12.5175 29.7946C12.5153 29.8012 12.5131 29.8079 12.511 29.8146L11.8379 32.037L11.1395 29.8089C11.1374 29.802 11.135 29.7951 11.1327 29.7883C11.0304 29.502 10.7361 29.3167 10.4152 29.3365C10.0951 29.3568 9.82909 29.578 9.76727 29.8811L9.02739 33.7391C8.96744 34.052 9.18832 34.3515 9.52078 34.408C9.85291 34.4642 10.1715 34.2566 10.2315 33.9436L10.5839 32.1056L11.1697 33.9742C11.1718 33.9811 11.1741 33.9878 11.1765 33.9945C11.2734 34.2662 11.5422 34.4481 11.8465 34.4481H11.8501C12.1557 34.4467 12.4246 34.2619 12.5189 33.9882C12.5211 33.9817 12.5233 33.975 12.5253 33.9683L13.0907 32.1018L13.466 33.9495C13.5294 34.2619 13.8506 34.467 14.1816 34.4069C14.5134 34.3473 14.731 34.0456 14.6676 33.7334L13.8825 29.8673C13.8183 29.5714 13.5499 29.3528 13.2296 29.3358Z" fill="white"/>
<path d="M17.9796 30.5043C18.3175 30.5043 18.5913 30.2466 18.5913 29.9285C18.5913 29.6105 18.3175 29.3528 17.9796 29.3528H16.2221C15.8842 29.3528 15.6104 29.6105 15.6104 29.9285V33.8542C15.6104 34.1722 15.8842 34.4299 16.2221 34.4299H17.9796C18.3175 34.4299 18.5913 34.1722 18.5913 33.8542C18.5913 33.5361 18.3175 33.2784 17.9796 33.2784H16.8338V32.4671H17.85C18.1879 32.4671 18.4617 32.2094 18.4617 31.8914C18.4617 31.5733 18.1879 31.3156 17.85 31.3156H16.8338V30.5044H17.9796V30.5043Z" fill="white"/>
<path d="M25.6507 34.1484C25.9802 34.3466 26.3517 34.4474 26.7551 34.4479H26.7585C27.1052 34.4479 27.431 34.3767 27.7265 34.2366C28.4552 33.8912 28.8565 33.322 28.8565 32.6336V29.9103C28.8565 29.5923 28.5827 29.3345 28.2447 29.3345C27.9068 29.3345 27.633 29.5923 27.633 29.9103V32.6336C27.633 32.8107 27.5788 33.0174 27.1761 33.2082C27.051 33.2675 26.9144 33.2963 26.7586 33.2963C26.7581 33.2963 26.7575 33.2963 26.7569 33.2963C26.5877 33.2961 26.4414 33.2574 26.3095 33.178C25.9948 32.9887 25.9315 32.8305 25.9315 32.6364V29.9102C25.9315 29.5922 25.6577 29.3345 25.3197 29.3345C24.9818 29.3345 24.708 29.5922 24.708 29.9102V32.6364C24.708 33.2637 25.0252 33.7724 25.6507 34.1484Z" fill="white"/>
</svg>
