<svg width="220" height="53" viewBox="0 0 220 53" fill="none" xmlns="http://www.w3.org/2000/svg">
<path d="M0.829287 35.5427L0.829408 35.5425C0.845052 35.5204 0.866873 35.4997 0.874026 35.4929L0.875232 35.4918C0.887816 35.4798 0.903754 35.4652 0.921905 35.4489C0.958461 35.4161 1.00812 35.3726 1.0669 35.322C1.18469 35.2205 1.34191 35.0877 1.51032 34.9477C1.84527 34.6694 3.48293 33.2992 5.14981 31.9026L12.079 26.0973C16.5528 22.3493 21.2797 18.3891 23.8495 16.2357C24.8251 15.4183 27.9765 12.7781 30.8526 10.3688C33.7287 7.95942 37.4621 4.82981 39.149 3.41405L39.285 3.57604L39.149 3.41405C39.9928 2.70599 40.7641 2.06197 41.3271 1.59475C41.6086 1.36118 41.8383 1.17155 41.9991 1.04012C42.0793 0.974489 42.143 0.922883 42.1876 0.887431C42.2097 0.86986 42.2282 0.855365 42.2421 0.844868C42.2487 0.83985 42.2562 0.834252 42.2634 0.829307C42.2666 0.827088 42.2728 0.822888 42.2803 0.818487C42.2838 0.816425 42.2912 0.812227 42.3007 0.807865L42.301 0.807716C42.3048 0.805921 42.3364 0.790934 42.3786 0.788796C42.4274 0.786326 42.4655 0.802199 42.469 0.803696L42.4693 0.8038C42.4807 0.808236 42.4899 0.81288 42.4951 0.815608C42.5063 0.821384 42.5171 0.827869 42.5258 0.833234C42.544 0.844479 42.5667 0.859517 42.5919 0.876765C42.6432 0.911708 42.7132 0.961357 42.7965 1.02152C42.9635 1.14215 43.1879 1.3082 43.4296 1.49071L44.3056 2.15206L44.4409 2.25423L44.3706 2.40853L44.2661 2.63776C44.2661 2.63777 44.2661 2.63778 44.2661 2.63779C44.2085 2.76425 43.7788 3.7027 43.3113 4.72307L43.119 4.63499L43.3113 4.72308C42.8437 5.74368 41.6129 8.43071 40.5762 10.6943C39.5395 12.9578 37.9679 16.389 37.0837 18.3191C36.1995 20.2491 35.0065 22.8535 34.4326 24.1065L32.9117 27.4275C32.8829 27.4903 32.8548 27.552 32.8275 27.6119C33.0343 27.4295 33.2733 27.2176 33.5271 26.9918C34.2996 26.3044 35.8213 24.9525 36.9088 23.9875C37.9962 23.0226 40.607 20.7045 42.7107 18.8363L46.5355 15.4396L46.6642 15.3253L46.8022 15.4281L47.6893 16.0889C48.1737 16.4497 48.5839 16.7555 48.5943 16.7638L48.5944 16.7639C48.6293 16.7991 48.665 16.868 48.6714 16.8958C48.6734 16.9119 48.6739 16.9382 48.6732 16.9482C48.6716 16.966 48.6681 16.9796 48.6671 16.9835C48.6644 16.9938 48.6614 17.0018 48.6606 17.0041C48.6582 17.0104 48.6558 17.0162 48.6545 17.0194C48.6513 17.0267 48.6473 17.0357 48.6429 17.0454C48.6339 17.0652 48.6207 17.0935 48.6037 17.1295C48.5697 17.2017 48.5193 17.3073 48.4545 17.4425C48.3248 17.7131 48.1364 18.1035 47.9036 18.5846C47.438 19.5469 46.7941 20.8726 46.0843 22.3297C45.3745 23.7865 44.7238 25.1239 44.2472 26.1051C44.1145 26.3781 43.9954 26.6235 43.8922 26.8363C44.9493 25.8478 47.5793 23.3948 53.2394 18.1177C54.5715 16.8757 55.7277 15.7966 55.8101 15.7183L55.8101 15.7183L55.9616 15.5745L56.0898 15.4528L56.2323 15.5572L57.1155 16.2044C57.359 16.3829 57.582 16.5487 57.7451 16.6723C57.8266 16.734 57.8939 16.7857 57.9417 16.8235C57.9653 16.8421 57.9857 16.8586 58.001 16.8715C58.0083 16.8777 58.0168 16.8851 58.0245 16.8924C58.0281 16.8959 58.0343 16.9019 58.041 16.9094C58.0443 16.9132 58.0498 16.9196 58.0559 16.928C58.06 16.9338 58.0736 16.953 58.0836 16.9809C58.0836 16.981 58.0836 16.9811 58.0837 16.9812L57.8844 17.0521C57.8946 17.0806 57.5408 17.8213 56.3033 20.3623C54.5192 24.0255 52.7271 27.7094 51.3518 30.5409C49.4372 34.4825 46.6438 40.2189 46.0104 41.5096C45.9072 41.7199 45.8201 41.8981 45.7471 42.0482L0.829287 35.5427ZM0.829287 35.5427C0.790268 35.5979 0.787227 35.6546 0.788865 35.685C0.790551 35.7164 0.798194 35.742 0.803668 35.7577C0.81473 35.7893 0.830938 35.8187 0.844748 35.8417C0.873746 35.8899 0.917387 35.9507 0.972617 36.0225C1.08453 36.168 1.26226 36.3824 1.51557 36.6791L1.6764 36.5418M0.829287 35.5427L1.6764 36.5418M72.1052 10.2624C72.0295 10.1867 71.938 10.1993 71.9108 10.2051C71.8793 10.2119 71.8569 10.2243 71.8494 10.2286C71.8316 10.2387 71.8189 10.2495 71.8151 10.2527C71.8047 10.2614 71.7956 10.2705 71.79 10.2762C71.7773 10.289 71.7617 10.306 71.7449 10.3248C71.7105 10.3632 71.6629 10.4182 71.606 10.4852C71.4918 10.6195 71.3368 10.8058 71.1682 11.0118L71.3319 11.1457L71.1682 11.0118C70.8324 11.4223 70.1709 12.2295 69.6982 12.8054C67.9911 14.8858 53.422 32.6853 52.7004 33.5722C52.051 34.3703 50.1925 36.6379 48.4944 38.7062C47.6863 39.6906 46.9146 40.6298 46.3272 41.3437L71.9557 10.412M72.1052 10.2624L71.9557 10.412M72.1052 10.2624C72.105 10.2622 72.1048 10.262 72.1046 10.2618L71.9557 10.412M72.1052 10.2624C72.1216 10.2788 72.1315 10.2942 72.1346 10.299C72.1391 10.306 72.1424 10.3121 72.1444 10.3158C72.147 10.3207 72.1493 10.3254 72.1511 10.3293C72.1521 10.3315 72.153 10.3334 72.1538 10.3351C72.1582 10.3451 72.1631 10.357 72.1683 10.3699C72.1788 10.3964 72.194 10.4363 72.2155 10.4942C72.2588 10.6104 72.3297 10.8044 72.4441 11.1198C72.6729 11.7508 73.0767 12.8707 73.7836 14.8329C74.0419 15.5498 74.2797 16.2044 74.4546 16.6813C74.5421 16.9198 74.6138 17.1136 74.6645 17.2484C74.6774 17.2827 74.6888 17.313 74.6988 17.3392M71.9557 10.412C71.9596 10.4159 71.9779 10.4613 72.0325 10.6087C72.0458 10.6034 72.055 10.5982 72.059 10.596C72.0747 10.587 72.0852 10.5782 72.0871 10.5765L72.0873 10.5764C72.0926 10.5719 72.0947 10.5695 72.0913 10.573C72.0859 10.5785 72.0757 10.5894 72.06 10.6069C72.0539 10.6137 72.0473 10.6212 72.0401 10.6293C72.1883 11.0306 72.5807 12.1179 73.5846 14.9046C74.1014 16.339 74.5363 17.5243 74.551 17.5387M74.6988 17.3392C74.6664 17.3374 74.6403 17.3357 74.6205 17.3342C74.6047 17.3331 74.5955 17.3322 74.5912 17.3317C74.5885 17.3313 74.5911 17.3316 74.5964 17.3326C74.5979 17.3329 74.6019 17.3337 74.6075 17.3352C74.6101 17.3359 74.613 17.3367 74.6162 17.3377C74.6211 17.3392 74.6303 17.3424 74.6414 17.3476C74.6499 17.3515 74.6739 17.3632 74.6982 17.3868L74.551 17.5387M74.6988 17.3392C74.7003 17.3431 74.7017 17.347 74.7032 17.3507C74.7109 17.371 74.7177 17.3885 74.7234 17.4032C74.7304 17.421 74.7353 17.4332 74.7384 17.4406C74.7393 17.4427 74.7398 17.4438 74.74 17.4443C74.7402 17.4448 74.7401 17.4446 74.7399 17.444C74.7397 17.4436 74.7381 17.4402 74.7355 17.4355C74.7342 17.4332 74.7315 17.4284 74.7276 17.4224L74.7275 17.4222C74.725 17.4184 74.715 17.4032 74.6984 17.387L74.551 17.5387M74.6988 17.3392C74.7168 17.3402 74.7368 17.3413 74.7587 17.3424C74.8805 17.3485 75.056 17.3558 75.2724 17.3636C75.705 17.3794 76.2985 17.3976 76.9485 17.4143C77.599 17.4312 78.1908 17.4471 78.6203 17.4592C78.8351 17.4652 79.0094 17.4703 79.1302 17.4741C79.1906 17.476 79.238 17.4776 79.2704 17.4788L79.3092 17.4804L79.3232 17.4812C79.325 17.4813 79.3294 17.4816 79.3345 17.4822C79.3358 17.4824 79.3391 17.4827 79.3437 17.4835C79.346 17.4838 79.3485 17.4842 79.3512 17.4848C79.3546 17.4854 79.3648 17.4874 79.3775 17.4916C79.3843 17.494 79.4016 17.5011 79.4117 17.5063C79.4286 17.5164 79.4713 17.554 79.4934 17.5845L79.0849 17.6843C78.7044 17.6726 77.8853 17.6501 76.943 17.6257C75.6422 17.5922 74.5658 17.553 74.551 17.5387M52.472 22.5345C52.367 22.6319 52.2555 22.7356 52.1403 22.8433C49.1495 25.6366 40.7734 33.4553 40.6057 33.6101L40.4156 33.7857L40.2879 33.9036L40.1475 33.8011L39.2474 33.1442C38.9988 32.9628 38.7729 32.7936 38.6091 32.6669C38.5275 32.6038 38.4598 32.5502 38.4121 32.5104C38.3886 32.4909 38.3672 32.4724 38.3507 32.4567C38.3431 32.4495 38.332 32.4386 38.3214 32.4262C38.3167 32.4205 38.3066 32.4082 38.2969 32.3915C38.2921 32.3831 38.2839 32.3678 38.2775 32.3474C38.2718 32.3292 38.2616 32.2886 38.2725 32.2383C38.2753 32.2253 38.2788 32.2154 38.2796 32.2131L38.2797 32.2129L38.2828 32.2046L38.286 32.1968L38.2904 32.187L38.3014 32.1632L38.3405 32.0809C38.3743 32.0101 38.4238 31.907 38.4873 31.7752C38.6143 31.5117 38.7973 31.1328 39.0229 30.6669C39.474 29.7349 40.0952 28.4542 40.7777 27.0495C40.9841 26.6245 41.1761 26.2293 41.3547 25.8619C42.3335 23.8473 42.9073 22.6663 43.2375 21.9803C42.5838 22.5608 41.5414 23.4861 40.3862 24.5115C38.4757 26.2075 35.3605 28.9755 33.4638 30.6627C31.5712 32.3461 29.9672 33.7694 29.9068 33.8184L29.7736 33.6542L29.9068 33.8184L29.806 33.9002L29.6795 34.0027L29.548 33.9066L28.6629 33.2597C28.4194 33.0818 28.1966 32.9187 28.0337 32.7993L27.839 32.6565L27.7843 32.6161C27.7779 32.6114 27.76 32.5984 27.7511 32.5907L27.7511 32.5907C27.6855 32.534 27.6795 32.4609 27.6786 32.449L27.6785 32.4483C27.6766 32.4262 27.6787 32.4089 27.6796 32.4022C27.6816 32.387 27.6848 32.3752 27.6859 32.3714C27.6886 32.3615 27.6917 32.3529 27.6933 32.3483C27.6972 32.3376 27.7022 32.325 27.7075 32.3121C27.7184 32.2854 27.7343 32.2481 27.7543 32.202C27.7945 32.1093 27.8531 31.9769 27.9257 31.8147C28.0709 31.4902 28.2729 31.0445 28.4966 30.556C31.024 25.0362 33.3518 19.9532 33.8532 18.8594C34.1681 18.1723 35.0048 16.3452 35.7125 14.7991C36.4202 13.253 37.6238 10.6249 38.3873 8.95897C38.769 8.12614 39.1149 7.36818 39.3648 6.81794C39.3773 6.79033 39.3896 6.76324 39.4017 6.73669C39.3656 6.7668 39.3288 6.79757 39.2914 6.82887L27.9645 16.317C26.2978 17.7132 23.2461 20.2693 21.1831 21.9972C13.0961 28.7704 9.14903 32.0776 8.19339 32.881C6.2111 34.5474 4.80927 35.7212 3.89898 36.4761C3.44399 36.8534 3.11102 37.1267 2.88952 37.3047C2.77905 37.3935 2.6948 37.4598 2.63646 37.5037C2.6078 37.5253 2.58248 37.5437 2.56224 37.5571C2.55296 37.5633 2.53935 37.572 2.52446 37.5796C2.51794 37.5829 2.50281 37.5904 2.4831 37.5962C2.47337 37.5991 2.45468 37.6039 2.43074 37.6049C2.40927 37.6059 2.36068 37.6048 2.30998 37.5737M52.472 22.5345L2.42066 37.3935M52.472 22.5345C52.4108 22.661 52.3419 22.8034 52.2642 22.9636C51.7106 24.1059 50.7169 26.1475 48.9625 29.7501C46.2948 35.2279 40.0762 48.0141 39.2564 49.7068C39.1457 49.9354 39.0449 50.146 38.9716 50.3011C38.9351 50.3786 38.9051 50.4428 38.8841 50.4887C38.8737 50.5115 38.865 50.5309 38.8587 50.5455C38.8557 50.5526 38.8524 50.5604 38.8496 50.5676C38.8483 50.571 38.8461 50.5768 38.844 50.5835C38.8429 50.5867 38.8411 50.5927 38.8393 50.6001L38.8392 50.6005C38.8381 50.6049 38.8333 50.6248 38.8333 50.6504C38.8333 50.7185 38.8666 50.765 38.8708 50.7709L38.8712 50.7714C38.8807 50.7851 38.8897 50.7948 38.8937 50.7989C38.9025 50.8081 38.9107 50.8149 38.9143 50.818C38.9182 50.8213 38.9223 50.8245 38.9262 50.8275C38.931 50.8312 38.9356 50.8346 38.9397 50.8376C38.9557 50.8494 38.9772 50.8643 39.0021 50.8813C39.0524 50.9156 39.1234 50.9626 39.2076 51.0178C39.3762 51.1283 39.6016 51.2734 39.8293 51.4187C40.057 51.564 40.2878 51.7099 40.4674 51.8217C40.5571 51.8775 40.6347 51.9252 40.693 51.9603C40.722 51.9777 40.7473 51.9926 40.7672 52.004L40.7683 52.0046C40.7819 52.0123 40.8085 52.0275 40.8317 52.0364L40.832 52.0365C40.9006 52.0626 40.9595 52.0463 40.9808 52.0394C41.0069 52.031 41.0273 52.0193 41.0393 52.0119C41.0642 51.9965 41.0871 51.9775 41.1054 51.9613C41.1437 51.9274 41.1903 51.8797 41.2428 51.8228C41.3491 51.7076 41.4947 51.5374 41.6736 51.3194C42.2037 50.6734 44.3834 48.0102 49.1869 42.1395C50.4189 40.6339 52.0163 38.6821 52.7365 37.8023C53.9877 36.2741 55.0712 34.9489 56.8818 32.7325C57.3357 32.1768 58.5806 30.6556 59.6482 29.352C61.7209 26.8212 64.5842 23.324 68.7263 18.2639C69.4313 17.4026 70.0753 16.6198 70.5449 16.0524C70.7705 15.7798 70.9556 15.5572 71.0878 15.3996M52.472 22.5345L71.0878 15.3996M2.30998 37.5737L2.42066 37.3935M2.30998 37.5737C2.31 37.5737 2.31003 37.5737 2.31006 37.5737L2.42066 37.3935M2.30998 37.5737C2.29188 37.5625 2.27882 37.5506 2.27704 37.549C2.27218 37.5447 2.26791 37.5405 2.26483 37.5375C2.25851 37.5313 2.25169 37.5242 2.24507 37.5171C2.23156 37.5028 2.21404 37.4836 2.19353 37.4608C2.15225 37.4149 2.09558 37.3508 2.02789 37.2733C1.89232 37.1182 1.71068 36.9076 1.51557 36.6791L1.6764 36.5418M2.42066 37.3935C2.40078 37.3813 2.06588 36.998 1.6764 36.5418M71.0878 15.3996C71.1223 15.4906 71.1628 15.5982 71.2081 15.719C71.3545 16.1101 71.5493 16.6375 71.7487 17.1815C72.1486 18.2726 72.5635 19.4213 72.6459 19.6786L72.7064 19.8674L72.7524 20.011L72.9032 20.0143L74.0338 20.0392C74.6574 20.053 75.3022 20.0754 75.4691 20.0887L75.4858 19.8778L75.4691 20.0887L75.4852 20.0899L72.808 25.9839C72.0374 27.6803 71.3369 29.2238 70.829 30.3442C70.5751 30.9044 70.3693 31.3588 70.2269 31.6736C70.1558 31.831 70.1004 31.9536 70.0629 32.0372L70.0199 32.133L70.0084 32.159L70.0045 32.1679L70.0019 32.1745L69.9987 32.1832L69.9948 32.1956C69.9929 32.2032 69.9881 32.2314 69.9871 32.2523C69.9871 32.3067 70.0083 32.3452 70.0125 32.3529C70.02 32.3669 70.0275 32.377 70.0311 32.3817C70.0388 32.3917 70.0457 32.3989 70.0483 32.4015C70.0545 32.4079 70.0602 32.4129 70.0629 32.4153C70.0692 32.4209 70.0763 32.4269 70.0829 32.4322C70.0966 32.4434 70.1155 32.4584 70.1384 32.4763C70.1845 32.5123 70.2505 32.5631 70.3312 32.6246C70.4928 32.7478 70.7154 32.9158 70.96 33.0988L71.8482 33.7635L71.9815 33.8633L72.1097 33.7571L74.372 31.8843L80.5702 26.7535C82.7349 24.9617 86.1655 22.1217 88.1938 20.4422C89.3157 19.5132 90.2365 18.7447 90.8756 18.2047C91.1951 17.9348 91.4448 17.7214 91.6144 17.5734C91.6989 17.4996 91.7649 17.4408 91.8099 17.399C91.832 17.3785 91.8516 17.3597 91.8665 17.3442C91.8732 17.3371 91.8833 17.3263 91.8928 17.314C91.8969 17.3087 91.9066 17.2958 91.9157 17.2783C91.9201 17.2698 91.9284 17.2527 91.9339 17.2297C91.9388 17.21 91.9481 17.1604 91.9258 17.1027C91.9258 17.1026 91.9258 17.1025 91.9257 17.1024L91.7285 17.1787M71.0878 15.3996L74.8932 27.9419C74.8106 28.1247 74.7464 28.2676 74.6969 28.3789C75.6496 27.5904 78.746 25.0267 82.3712 22.025C86.7221 18.4225 90.2919 15.475 90.3041 15.475C90.3325 15.475 91.7042 17.1158 91.7285 17.1787M91.7285 17.1787C91.7396 17.2074 90.3023 18.4218 88.0589 20.2793C86.0306 21.9588 82.6 24.7988 80.4353 26.5906L74.2372 31.7214L71.9749 33.5942L91.7285 17.1787ZM71.8132 10.5682C71.8083 10.5739 71.8033 10.5798 71.7982 10.5857C71.7881 10.5592 71.7807 10.5399 71.7753 10.5262C71.7708 10.515 71.7685 10.5097 71.7678 10.5081C71.7673 10.5071 71.7685 10.5097 71.7708 10.5141C71.7719 10.5163 71.7745 10.5211 71.7784 10.5271L71.8132 10.5682ZM79.1133 17.6192L79.1126 17.6211C79.1135 17.6186 79.114 17.6175 79.1133 17.6192ZM74.5128 28.5313C74.4392 28.5923 74.3991 28.6254 74.3954 28.6284L74.5128 28.5313Z" fill="white" stroke="white" stroke-width="0.422955"/>
<path d="M94.1885 32.7473V22.3934C94.1885 21.6264 94.524 21.2429 95.1951 21.2429C95.8662 21.2429 96.2017 21.6264 96.2017 22.3934V30.7341H99.6291V22.3934C99.6291 21.6264 99.9646 21.2429 100.636 21.2429C101.307 21.2429 101.642 21.6264 101.642 22.3934V30.7341H105.07V22.3934C105.07 21.6264 105.405 21.2429 106.076 21.2429C106.747 21.2429 107.083 21.6264 107.083 22.3934V32.7473H94.1885ZM120.402 32.9151C120.203 32.9151 120.039 32.8552 119.911 32.7353C119.783 32.6235 119.687 32.3798 119.624 32.0043C119.568 31.6288 119.54 31.0536 119.54 30.2787L119.803 30.9018C119.3 31.5969 118.669 32.0802 117.91 32.3519C117.159 32.6155 116.272 32.7473 115.249 32.7473H113.021C112.15 32.7473 111.439 32.4597 110.887 31.8845C110.344 31.3013 110.073 30.4225 110.073 29.2481C110.073 28.5131 110.192 27.8939 110.432 27.3906C110.672 26.8793 111.043 26.4678 111.547 26.1563C112.05 25.8367 112.693 25.605 113.476 25.4612C114.259 25.3174 115.194 25.2455 116.28 25.2455H120.331L119.42 26.0604V24.2868C119.42 23.9353 119.36 23.7036 119.24 23.5918C119.128 23.4799 118.877 23.424 118.485 23.424H115.106C114.299 23.424 113.68 23.444 113.248 23.4839C112.825 23.5238 112.529 23.6037 112.361 23.7236C112.194 23.8354 112.102 23.9992 112.086 24.2149C112.054 24.6303 111.978 24.9379 111.858 25.1377C111.738 25.3374 111.479 25.4372 111.079 25.4372C110.408 25.4372 110.073 25.0058 110.073 24.143C110.073 23.1923 110.468 22.5012 111.259 22.0698C112.05 21.6304 113.276 21.4107 114.938 21.4107H118.653C119.675 21.4107 120.394 21.6544 120.81 22.1417C121.225 22.6291 121.433 23.4719 121.433 24.6703V31.7647C121.433 32.5316 121.09 32.9151 120.402 32.9151ZM113.092 30.8299H115.249C116.759 30.8299 117.83 30.5263 118.461 29.9192C119.1 29.304 119.42 28.3373 119.42 27.0191L119.564 27.1629H116.28C115.226 27.1629 114.391 27.2148 113.775 27.3187C113.168 27.4146 112.733 27.6063 112.469 27.8939C112.214 28.1815 112.086 28.6089 112.086 29.1762C112.086 29.6875 112.174 30.0909 112.349 30.3865C112.533 30.6821 112.781 30.8299 113.092 30.8299ZM124.711 32.9391C123.88 32.9391 123.464 32.6035 123.464 31.9324C123.464 31.2613 123.88 30.9258 124.711 30.9258C124.998 30.9258 125.262 30.794 125.502 30.5303C125.749 30.2587 125.925 29.9671 126.029 29.6555C126.173 29.2241 126.3 28.8806 126.412 28.6249C126.524 28.3693 126.692 28.1056 126.916 27.834C126.213 27.6103 125.697 27.2588 125.37 26.7794C125.042 26.3001 124.878 25.653 124.878 24.8381C124.878 23.9513 125.058 23.2602 125.418 22.7649C125.785 22.2696 126.408 21.922 127.287 21.7223C128.174 21.5146 129.392 21.4107 130.942 21.4107H134.633C134.921 21.4107 135.152 21.5106 135.328 21.7103C135.504 21.902 135.592 22.1617 135.592 22.4893V31.9324C135.592 32.228 135.496 32.4637 135.304 32.6395C135.12 32.8232 134.873 32.9151 134.561 32.9151C134.282 32.9151 134.046 32.8192 133.854 32.6275C133.67 32.4437 133.579 32.212 133.579 31.9324V28.2654H130.559C129.975 28.2654 129.528 28.3054 129.217 28.3852C128.905 28.4651 128.665 28.6249 128.497 28.8646C128.338 29.1043 128.186 29.4678 128.042 29.9551C127.786 30.8259 127.343 31.541 126.712 32.1002C126.089 32.6594 125.422 32.9391 124.711 32.9391ZM130.151 26.2521H133.579V23.424H130.151C129.432 23.424 128.829 23.444 128.342 23.4839C127.862 23.5159 127.499 23.6277 127.251 23.8194C127.012 24.0032 126.892 24.3188 126.892 24.7662C126.892 25.2615 127.016 25.613 127.263 25.8207C127.511 26.0284 127.874 26.1523 128.354 26.1922C128.841 26.2322 129.44 26.2521 130.151 26.2521ZM149.09 37.6606C148.459 37.6606 147.935 37.5528 147.52 37.3371C147.113 37.1294 146.809 36.8058 146.609 36.3664C146.409 35.927 146.31 35.3758 146.31 34.7127C146.31 34.2812 146.393 33.9497 146.561 33.718C146.737 33.4863 146.989 33.3705 147.316 33.3705C147.652 33.3705 147.903 33.4703 148.071 33.6701C148.239 33.8698 148.323 34.1614 148.323 34.5449C148.323 34.9923 148.383 35.2879 148.503 35.4317C148.63 35.5755 148.882 35.6474 149.258 35.6474H156.664C156.983 35.6474 157.183 35.6034 157.263 35.5156C157.343 35.4277 157.383 35.2 157.383 34.8325V31.6928C156.384 32.3958 154.986 32.7473 153.188 32.7473H152.493C150.967 32.7473 149.749 32.6075 148.838 32.3279C147.935 32.0483 147.288 31.5889 146.897 30.9498C146.505 30.3026 146.31 29.4318 146.31 28.3373V22.3934C146.31 21.6264 146.645 21.2429 147.316 21.2429C147.987 21.2429 148.323 21.6264 148.323 22.3934V28.2654C148.323 28.9685 148.419 29.4997 148.61 29.8592C148.81 30.2108 149.206 30.4464 149.797 30.5663C150.396 30.6781 151.295 30.7341 152.493 30.7341H153.188C154.594 30.7341 155.645 30.4305 156.34 29.8233C157.035 29.2081 157.383 28.2814 157.383 27.0431V22.3934C157.383 21.6264 157.718 21.2429 158.389 21.2429C159.06 21.2429 159.396 21.6264 159.396 22.3934V34.449C159.396 35.6154 159.204 36.4423 158.821 36.9296C158.437 37.417 157.774 37.6606 156.831 37.6606H149.09ZM173.002 32.9151C172.331 32.9151 171.996 32.5236 171.996 31.7407V23.424H167.25C166.715 23.424 166.359 23.4879 166.184 23.6157C166.016 23.7435 165.932 24.0072 165.932 24.4066V29.4877C165.932 30.2547 165.828 30.8819 165.62 31.3692C165.413 31.8485 165.089 32.2041 164.65 32.4357C164.21 32.6594 163.639 32.7713 162.936 32.7713C162.521 32.7713 162.181 32.6954 161.917 32.5436C161.654 32.3918 161.522 32.1242 161.522 31.7407C161.522 31.0696 161.945 30.7341 162.792 30.7341C163.224 30.7341 163.519 30.6661 163.679 30.5303C163.839 30.3945 163.919 30.1429 163.919 29.7754V24.6703C163.919 23.8234 164.011 23.1643 164.194 22.693C164.378 22.2216 164.698 21.8901 165.153 21.6983C165.616 21.5066 166.252 21.4107 167.058 21.4107H174.009V31.7167C174.009 32.5156 173.674 32.9151 173.002 32.9151ZM188.493 32.9151C187.822 32.9151 187.487 32.4997 187.487 31.6688V24.2628L179.254 32.7473H177.372V22.4173C177.372 21.6344 177.708 21.2429 178.379 21.2429C179.05 21.2429 179.386 21.6584 179.386 22.4893V29.9911L187.69 21.4107H189.5V31.7407C189.5 32.5236 189.164 32.9151 188.493 32.9151ZM203.964 34.9523C203.293 34.9523 202.958 34.5449 202.958 33.73V32.7473H192.844V22.3934C192.844 21.6264 193.179 21.2429 193.85 21.2429C194.521 21.2429 194.857 21.6264 194.857 22.3934V30.7341H201.568V22.3934C201.568 21.6264 201.903 21.2429 202.574 21.2429C203.245 21.2429 203.581 21.6344 203.581 22.4173V31.7886L202.838 30.8779H203.389C204.444 30.9018 204.971 31.477 204.971 32.6035V33.73C204.971 34.5449 204.636 34.9523 203.964 34.9523ZM217.349 32.9151C217.149 32.9151 216.985 32.8552 216.858 32.7353C216.73 32.6235 216.634 32.3798 216.57 32.0043C216.514 31.6288 216.486 31.0536 216.486 30.2787L216.75 30.9018C216.246 31.5969 215.615 32.0802 214.856 32.3519C214.105 32.6155 213.219 32.7473 212.196 32.7473H209.967C209.096 32.7473 208.385 32.4597 207.834 31.8845C207.291 31.3013 207.019 30.4225 207.019 29.2481C207.019 28.5131 207.139 27.8939 207.378 27.3906C207.618 26.8793 207.99 26.4678 208.493 26.1563C208.996 25.8367 209.639 25.605 210.422 25.4612C211.205 25.3174 212.14 25.2455 213.227 25.2455H217.277L216.366 26.0604V24.2868C216.366 23.9353 216.306 23.7036 216.187 23.5918C216.075 23.4799 215.823 23.424 215.432 23.424H212.052C211.245 23.424 210.626 23.444 210.195 23.4839C209.771 23.5238 209.476 23.6037 209.308 23.7236C209.14 23.8354 209.048 23.9992 209.032 24.2149C209 24.6303 208.924 24.9379 208.805 25.1377C208.685 25.3374 208.425 25.4372 208.026 25.4372C207.355 25.4372 207.019 25.0058 207.019 24.143C207.019 23.1923 207.414 22.5012 208.205 22.0698C208.996 21.6304 210.223 21.4107 211.884 21.4107H215.599C216.622 21.4107 217.341 21.6544 217.756 22.1417C218.172 22.6291 218.38 23.4719 218.38 24.6703V31.7647C218.38 32.5316 218.036 32.9151 217.349 32.9151ZM210.039 30.8299H212.196C213.706 30.8299 214.776 30.5263 215.408 29.9192C216.047 29.304 216.366 28.3373 216.366 27.0191L216.51 27.1629H213.227C212.172 27.1629 211.337 27.2148 210.722 27.3187C210.115 27.4146 209.679 27.6063 209.416 27.8939C209.16 28.1815 209.032 28.6089 209.032 29.1762C209.032 29.6875 209.12 30.0909 209.296 30.3865C209.48 30.6821 209.727 30.8299 210.039 30.8299Z" fill="white"/>
</svg>
