<svg width="241" height="78" viewBox="0 0 241 78" fill="none" xmlns="http://www.w3.org/2000/svg">
<path d="M148.936 43.1015C148.965 43.1739 149.459 44.4647 150.033 45.9699C150.607 47.4752 151.108 48.7394 151.147 48.7793C151.185 48.8192 151.745 47.5284 152.391 45.9109L153.565 42.9699H154.957H156.349L156.192 43.3121C156.105 43.5002 155.236 45.3831 154.261 47.4963C153.285 49.6094 152.118 52.1436 151.668 53.1278C151.218 54.1121 150.785 55.0475 150.705 55.2068L150.561 55.4963H149.275C147.755 55.4963 147.794 55.7874 148.973 53.2509L149.796 51.4792L148.83 49.2509C148.298 48.0253 147.467 46.1108 146.983 44.9963L146.103 42.9699H147.493C148.5 42.9699 148.897 43.0061 148.936 43.1015Z" fill="white"/>
<path d="M165.476 47.6542C165.476 50.2305 165.438 52.3406 165.392 52.3433C165.227 52.3528 163.614 52.3563 163.475 52.3473C163.365 52.3404 163.334 51.5161 163.334 48.6015V44.8647H161.587H159.84L159.831 46.891C159.818 49.9976 159.709 50.5096 158.877 51.3735C158.288 51.9853 157.548 52.3132 156.683 52.3457C155.619 52.3858 155.69 52.451 155.649 51.397L155.613 50.4556L156.152 50.4597C156.782 50.4646 157.16 50.2666 157.442 49.7848C157.619 49.4836 157.646 49.0642 157.679 46.2068L157.716 42.9699H161.596H165.476V47.6542Z" fill="white"/>
<path d="M169.89 45.5226C169.914 48.9856 169.91 48.8647 169.993 48.8647C170.068 48.8647 173.903 43.3693 174.01 43.1096C174.053 43.0044 174.398 42.9699 175.408 42.9699H176.748V47.6542V52.3384H175.565H174.381L174.38 49.3121L174.378 46.2857L172.938 48.3384C172.146 49.4673 171.196 50.8285 170.826 51.3632L170.154 52.3353L168.83 52.3369L167.505 52.3384V47.6542V42.9699H168.689H169.872L169.89 45.5226Z" fill="white"/>
<path fill-rule="evenodd" clip-rule="evenodd" d="M206.366 21.8793L210.227 23.0039V24.1866V25.3692L206.451 28.706C203.102 31.6647 202.442 32.2702 202.759 32.0929C202.805 32.0669 205.953 31.1815 209.753 30.1254C216.037 28.379 216.674 28.2212 216.798 28.3811C217.077 28.7417 218.038 30.5526 217.98 30.6073C217.92 30.6628 216.417 31.0608 204.703 34.1222C201.573 34.9405 198.954 35.6278 198.885 35.6497C198.762 35.6887 196.669 34.4011 196.618 34.2546C196.603 34.2138 197.775 33.1147 199.221 31.8121C200.667 30.5094 201.836 29.4271 201.819 29.4069C201.802 29.3867 198.975 30.6976 195.537 32.32L189.287 35.2701L188.4 34.6914C187.912 34.3732 187.443 34.0752 187.357 34.0291C187.264 33.9792 187.048 33.2699 186.822 32.2734C186.615 31.3539 186.417 30.4921 186.383 30.3583C186.325 30.1261 186.074 30.2323 180.875 32.6916L175.429 35.2685L174.239 34.5315L173.05 33.7947L174.746 31.5666C175.679 30.341 176.568 29.1845 176.721 28.9963C176.875 28.8081 176.964 28.6542 176.92 28.6542C176.846 28.6542 172.23 31.1064 169.196 32.7575C165.149 34.9602 164.69 35.192 164.544 35.109C163.723 34.6396 162.207 33.5536 162.207 33.4349C162.207 33.3519 162.435 32.5269 162.714 31.6015C162.993 30.6762 163.222 29.8909 163.222 29.8565C163.222 29.8221 162.6 30.1007 161.841 30.4756C161.081 30.8505 159.42 31.6652 158.149 32.2862C154.201 34.215 153.265 34.6739 152.663 34.9765L152.08 35.2693L150.916 34.5318C150.275 34.1262 149.733 33.7771 149.71 33.7561C149.688 33.735 149.77 33.5614 149.892 33.3703C150.015 33.179 150.662 32.0278 151.33 30.8121C151.998 29.5963 152.72 28.303 152.936 27.9382C153.152 27.5733 153.31 27.2596 153.287 27.2409C153.264 27.2223 150.989 28.9562 148.23 31.0941C145.471 33.2319 143.103 35.0319 142.968 35.0942C142.756 35.192 142.579 35.1135 141.644 34.5045C141.05 34.1179 140.565 33.7787 140.565 33.7506C140.565 33.7224 140.637 33.5945 140.726 33.4663C141.11 32.9095 144.622 27.1448 144.593 27.1175C144.563 27.0893 141.586 29.0842 135.548 33.1786C134.122 34.1456 132.852 34.9971 132.725 35.0707C132.519 35.1903 132.386 35.1343 131.485 34.5497C130.93 34.1896 130.434 33.8584 130.383 33.8136C130.302 33.7432 131.962 31.0613 134.607 26.9915C135.032 26.3375 135.379 25.7794 135.379 25.7511C135.379 25.7229 134.948 25.9145 134.421 26.177C132.715 27.0266 131.636 27.5566 129.912 28.3908C128.982 28.8409 128.173 29.25 128.114 29.3C128.056 29.35 127.94 29.391 127.858 29.391C127.739 29.391 127.714 29.0847 127.739 27.9056L127.771 26.4203L131.998 24.3503C134.323 23.2117 136.816 21.9878 137.538 21.6304L138.851 20.9804L139.849 21.624C140.397 21.978 140.864 22.28 140.885 22.2951C140.906 22.3102 139.973 23.8063 138.812 25.6198C137.651 27.4334 136.676 28.9588 136.645 29.0095C136.513 29.2249 137.71 28.3844 145.693 22.6541C146.871 21.8086 147.89 21.0862 147.956 21.0487C148.071 20.9838 150.168 22.2567 150.234 22.4314C150.251 22.4772 149.435 23.8858 148.419 25.5615C146.103 29.3833 146.255 29.1176 146.453 29.0067C146.541 28.9575 148.929 27.1269 151.76 24.9386L156.908 20.9598L158.034 21.7104L159.16 22.4608L157.986 24.5837L157.223 25.9651C156.673 26.96 156.064 28.0619 155.635 28.8384C154.988 30.0108 154.485 30.9699 154.519 30.9699C154.574 30.9699 155.821 30.3598 157.642 29.4427C158.014 29.2553 159.105 28.7113 160.065 28.2338C161.026 27.7564 162.169 27.1876 162.604 26.97C163.04 26.7526 164.612 25.9709 166.099 25.233C167.585 24.4952 170.138 23.2277 171.771 22.4166L174.74 20.9417L179.098 22.2649C181.494 22.9926 183.573 23.619 183.717 23.6569C183.862 23.695 183.955 23.7843 183.925 23.8565C183.896 23.9283 182.697 25.5398 181.262 27.4376C179.826 29.3353 178.669 30.9039 178.69 30.9233C178.711 30.9427 180.045 30.2985 181.655 29.4917C183.265 28.6849 185.1 27.7756 185.733 27.4711L186.883 26.9173L187.702 27.1805L188.52 27.4436L188.773 28.5489C188.912 29.1568 189.139 30.1871 189.278 30.8384C189.417 31.4897 189.575 32.0226 189.628 32.0226C189.681 32.0226 191.476 31.1999 193.617 30.1944L197.51 28.3663L196.189 27.3259L194.868 26.2857L194.935 25.2454C194.972 24.6732 195.016 24.1967 195.034 24.1865C197.148 22.9523 201.022 20.8709 201.267 20.8372C202.227 20.7053 202.593 20.7802 206.366 21.8793ZM198.213 25.4171C198.245 25.3867 199.174 24.8718 200.276 24.2729C201.378 23.674 202.356 23.2033 202.449 23.2268C202.542 23.2503 203.43 23.4449 204.422 23.6593C205.414 23.8737 206.287 24.0801 206.363 24.1176C206.44 24.1554 205.095 24.8413 203.362 25.6489L200.223 27.1117L199.188 26.2921C198.619 25.8413 198.18 25.4475 198.213 25.4171ZM166.788 27.9949L170.725 25.854C172.891 24.6766 174.712 23.7117 174.772 23.7099C174.978 23.7039 178.439 24.8072 178.439 24.879C178.439 24.9186 178.046 25.1514 177.566 25.3964C177.085 25.6414 175.348 26.5507 173.705 27.4169C172.062 28.2831 170.033 29.3514 169.196 29.7909C168.359 30.2304 167.247 30.8168 166.724 31.0942C166.201 31.3714 165.758 31.5843 165.74 31.567C165.721 31.5498 165.95 30.739 166.247 29.7653L166.788 27.9949Z" fill="white"/>
<path d="M77.067 8.50468C78.3406 9.40689 78.4083 9.49016 78.3452 10.0752C78.324 10.2709 76.1283 14.8207 69.6835 28.0226C68.2562 30.9463 66.35 34.8513 65.4473 36.7005C64.5445 38.5496 63.8174 40.0708 63.8315 40.081C63.8456 40.0912 67.7883 36.8176 72.5931 32.8064L81.329 25.5132L81.7236 25.7866C81.9406 25.9369 82.5424 26.3662 83.0608 26.7405L84.0036 27.4211L83.9477 27.9061C83.9094 28.2394 83.4785 29.1808 82.5697 30.9173C81.1381 33.6527 80.0236 35.8022 79.0491 37.7068C78.7086 38.3726 78.4004 38.9647 78.3645 39.0226C78.3284 39.0805 78.7052 38.7726 79.2019 38.3384C79.6985 37.9042 83.1332 34.8963 86.8345 31.6542C90.5357 28.4121 93.611 25.7594 93.6683 25.7594C93.7818 25.7594 96.4523 27.5644 96.5442 27.7032C96.6018 27.7903 96.2334 28.5169 91.9254 36.8121C91.3842 37.8542 90.6485 39.2752 90.2904 39.9699C89.9323 40.6647 89.1466 42.1805 88.5441 43.3384C87.9417 44.4963 87.2819 45.7752 87.0781 46.1805C86.8742 46.5857 86.0172 48.2387 85.1737 49.8537C84.33 51.4688 83.6399 52.8054 83.6399 52.8241C83.6399 52.8427 83.2328 53.6242 82.7354 54.5605C82.2378 55.4969 81.8448 56.2751 81.8618 56.2898C81.8788 56.3046 83.5478 54.4149 85.5707 52.0907C87.5936 49.7664 93.0472 43.5068 97.6899 38.1805C102.333 32.8542 107.924 26.4357 110.116 23.9173C112.308 21.3989 114.214 19.2288 114.351 19.0948L114.602 18.8512L115.02 19.9369C115.25 20.534 116.026 22.5621 116.744 24.4436C117.462 26.3252 118.107 27.9184 118.176 27.984C118.261 28.0643 119.354 28.1242 121.515 28.167C123.281 28.2021 124.741 28.2312 124.758 28.2318C124.775 28.2326 124.717 28.3633 124.629 28.5226C124.503 28.7515 120.301 37.4331 119.067 40.0149C118.834 40.5038 118.824 40.565 118.999 40.4395C119.407 40.1471 120.685 39.1222 121.351 38.5527C121.726 38.2322 122.956 37.2465 124.084 36.3622L126.136 34.7543L126.135 36.9937L126.133 39.2331L125.375 39.8121C123.638 41.1393 121.472 42.9216 119.976 44.2539C119.098 45.0353 117.5 46.3662 116.425 47.2114L114.469 48.7483L113.125 47.4982L111.781 46.248L112.267 45.2143C112.652 44.3932 115.027 39.4715 118.423 32.4572C118.573 32.1463 118.696 31.8503 118.696 31.7993C118.696 31.7485 118.177 31.7056 117.541 31.7043C116.144 31.7012 115.54 31.5849 115.315 31.2752C115.222 31.1475 114.731 29.9806 114.225 28.6821C113.343 26.4201 113.22 26.1435 113.135 26.2418C112.542 26.9327 108.159 31.9713 106.917 33.391C105.98 34.4621 100.241 41.0463 94.1645 48.0226C75.1776 69.8205 74.0295 71.1282 73.8906 71.1159C73.7882 71.1069 70.9865 69.4907 70.813 69.3405C70.7678 69.3013 71.1508 68.5221 72.3405 66.2331C74.1322 62.7855 76.7712 57.6992 77.6247 56.0489C78.0811 55.1659 78.841 53.6975 79.3133 52.7857C79.7857 51.8739 80.515 50.4647 80.934 49.6542C81.3531 48.8436 82.9507 45.7647 84.4843 42.8121C86.0178 39.8594 87.4959 37.0007 87.7686 36.4593C88.2565 35.4911 88.2593 35.4792 87.9419 35.7287C87.7645 35.8682 84.3546 38.8452 80.3647 42.3445C76.3747 45.8437 73.0486 48.7009 72.9734 48.6936C72.8982 48.6863 72.2031 48.2464 71.4288 47.7158L70.0209 46.7513L71.1501 44.5711C71.7712 43.3721 72.4969 41.9647 72.7628 41.4436C73.0286 40.9226 73.6882 39.6436 74.2286 38.6015C75.9564 35.2688 76.2055 34.7437 75.99 34.8885C75.8802 34.9623 72.0733 38.1252 67.5303 41.9173C62.9872 45.7094 59.2284 48.8266 59.1774 48.8443C59.0644 48.8836 56.2484 46.9628 56.2484 46.8464C56.2484 46.7395 56.5966 46.0164 60.4725 38.0752C62.2527 34.4278 64.8403 29.1226 66.2228 26.2857C67.6052 23.4489 69.3013 19.9727 69.9917 18.5608C70.6822 17.149 71.2306 15.9783 71.2103 15.9594C71.19 15.9405 68.8425 17.7599 65.9935 20.0028C63.1446 22.2456 54.6759 28.909 47.1742 34.8104C39.6726 40.7117 31.2917 47.3062 28.5499 49.4646C25.8083 51.6231 23.5204 53.4013 23.4658 53.4164C23.3658 53.4438 20.97 50.8756 20.9677 50.7384C20.9662 50.6554 22.7339 49.2514 33.5348 40.7574C40.2482 35.4778 47.4272 29.8296 69.428 12.5173C72.8638 9.81363 75.7014 7.60152 75.7336 7.60152C75.7659 7.60152 76.3659 8.00795 77.067 8.50468Z" fill="white"/>
<path fill-rule="evenodd" clip-rule="evenodd" d="M195.399 43.0827C195.772 43.2129 196.273 43.5135 196.643 43.8301L197.264 44.3595V43.7436L197.264 43.1278L198.363 43.1459L199.462 43.164L199.491 47.8565L199.521 52.5489H198.392H197.264V51.9577V51.3665L196.799 51.7589C195.028 53.2531 192.278 53.1969 190.484 51.6298C189.209 50.5158 188.59 48.5617 188.941 46.7594C189.272 45.0572 190.707 43.5353 192.473 43.0123C193.209 42.7944 194.675 42.8296 195.399 43.0827ZM192.325 49.9625C190.695 48.6595 191.076 46.1774 193.037 45.3229C194.061 44.8763 195.319 45.0251 196.153 45.6915C197.688 46.9183 197.407 49.5402 195.658 50.3235C194.539 50.8245 193.226 50.6822 192.325 49.9625Z" fill="white"/>
<path d="M181.171 46.6278L181.201 50.2857L183.033 50.3147L184.864 50.3436V46.6568V42.9699H186.112H187.359L187.324 46.6543L187.288 50.3385H187.711L188.133 50.3384V52.1278V53.9173H186.893H185.653V53.1278V52.3384H182.215H178.777V47.6542V42.9699H179.959H181.142L181.171 46.6278Z" fill="white"/>
<path d="M218.005 37.2342C218.005 37.2819 217.692 37.787 217.311 38.3564L216.617 39.3917L172.278 39.3898C147.892 39.3888 127.94 39.3597 127.94 39.3253C127.94 39.2498 129.41 37.3605 129.527 37.2857C129.67 37.1945 218.005 37.1429 218.005 37.2342Z" fill="white"/>
</svg>
