<svg width="20" height="20" viewBox="0 0 20 20" fill="none" xmlns="http://www.w3.org/2000/svg">
<path d="M8.70246 0.222748L8.70246 2.48548C8.70246 2.61399 8.75801 2.7369 8.85523 2.8235L15.8633 8.93847L0.222214 8.93847C0.0999965 8.93847 1.30708e-07 9.03903 1.29242e-07 9.16195L1.09255e-07 10.838C1.07789e-07 10.961 0.0999964 11.0615 0.222214 11.0615L15.8633 11.0615L8.85523 17.1765C8.75801 17.2603 8.70246 17.3832 8.70246 17.5145L8.70246 19.7772C8.70246 19.9672 8.92745 20.0706 9.06911 19.9449L19.6937 10.6732C19.7899 10.5894 19.867 10.4858 19.9198 10.3694C19.9727 10.253 20 10.1266 20 9.9986C20 9.87065 19.9727 9.74419 19.9198 9.62779C19.867 9.5114 19.7899 9.40778 19.6937 9.32397L9.06911 0.0551377C8.92467 -0.0705699 8.70246 0.0327912 8.70246 0.222748Z" fill="#FF775D"/>
</svg>
